<svg xmlns="http://www.w3.org/2000/svg" xmlns:xlink="http://www.w3.org/1999/xlink" id="Camada_2" data-name="Camada 2" viewBox="0 0 194.56 72.77"><defs><style>      .cls-1 {        fill: url(#linear-gradient-2);      }      .cls-2 {        fill: #fff;      }      .cls-2, .cls-3, .cls-4, .cls-5, .cls-6, .cls-7, .cls-8, .cls-9, .cls-10, .cls-11 {        fill-rule: evenodd;      }      .cls-3 {        fill: #ec008c;      }      .cls-4 {        fill: url(#linear-gradient-6);      }      .cls-5 {        fill: #231f20;      }      .cls-6 {        fill: url(#linear-gradient-5);      }      .cls-12 {        fill: url(#Gradiente_sem_nome_2);      }      .cls-7 {        fill: url(#_Áåçûìÿííûé_ãðàäèåíò_669);      }      .cls-8 {        fill: #eceff0;      }      .cls-9 {        fill: #dec394;      }      .cls-10 {        fill: url(#_Áåçûìÿííûé_ãðàäèåíò_4);      }      .cls-13 {        fill: url(#linear-gradient-3);      }      .cls-14 {        fill: url(#linear-gradient);      }      .cls-11 {        fill: url(#linear-gradient-7);      }      .cls-15 {        fill: url(#linear-gradient-4);      }    </style><linearGradient id="linear-gradient" x1="66.98" y1="26.63" x2="190.99" y2="26.63" gradientUnits="userSpaceOnUse"><stop offset=".02" stop-color="#fee8a8"></stop><stop offset=".49" stop-color="#c06a29"></stop><stop offset=".7" stop-color="#fee8a8"></stop><stop offset=".87" stop-color="#c06a29"></stop></linearGradient><linearGradient id="linear-gradient-2" x1="190.99" y1="26.64" x2="194.56" y2="26.64" xlink:href="#linear-gradient"></linearGradient><linearGradient id="linear-gradient-3" x1="69.61" y1="128.22" x2="197.19" y2="128.22" gradientTransform="translate(-2.63 -101.59)" xlink:href="#linear-gradient"></linearGradient><linearGradient id="linear-gradient-4" x1="69.61" y1="128.22" x2="197.19" y2="128.22" gradientTransform="translate(-2.63 -101.59)" xlink:href="#linear-gradient"></linearGradient><linearGradient id="_&#xC1;&#xE5;&#xE7;&#xFB;&#xEC;&#xFF;&#xED;&#xED;&#xFB;&#xE9;_&#xE3;&#xF0;&#xE0;&#xE4;&#xE8;&#xE5;&#xED;&#xF2;_4" data-name="&#xC1;&#xE5;&#xE7;&#xFB;&#xEC;&#xFF;&#xED;&#xED;&#xFB;&#xE9; &#xE3;&#xF0;&#xE0;&#xE4;&#xE8;&#xE5;&#xED;&#xF2; 4" x1="0" y1="41.85" x2="59.87" y2="41.85" gradientUnits="userSpaceOnUse"><stop offset="0" stop-color="#ffd064"></stop><stop offset=".02" stop-color="#ffcf63"></stop><stop offset=".22" stop-color="#ffcd61"></stop><stop offset=".28" stop-color="#ffd369"></stop><stop offset=".37" stop-color="#ffe57f"></stop><stop offset=".43" stop-color="#fff593"></stop><stop offset=".58" stop-color="#fdd873"></stop><stop offset=".75" stop-color="#fbbd55"></stop><stop offset=".9" stop-color="#faac43"></stop><stop offset="1" stop-color="#faa73d"></stop></linearGradient><linearGradient id="_&#xC1;&#xE5;&#xE7;&#xFB;&#xEC;&#xFF;&#xED;&#xED;&#xFB;&#xE9;_&#xE3;&#xF0;&#xE0;&#xE4;&#xE8;&#xE5;&#xED;&#xF2;_669" data-name="&#xC1;&#xE5;&#xE7;&#xFB;&#xEC;&#xFF;&#xED;&#xED;&#xFB;&#xE9; &#xE3;&#xF0;&#xE0;&#xE4;&#xE8;&#xE5;&#xED;&#xF2; 669" x1="0" y1="41.85" x2="59.87" y2="41.85" gradientUnits="userSpaceOnUse"><stop offset="0" stop-color="#b76327"></stop><stop offset=".1" stop-color="#ba6628"></stop><stop offset=".19" stop-color="#c3712d"></stop><stop offset=".27" stop-color="#d48335"></stop><stop offset=".35" stop-color="#ea9c40"></stop><stop offset=".4" stop-color="#fbae49"></stop><stop offset=".45" stop-color="#fab451"></stop><stop offset=".52" stop-color="#fac767"></stop><stop offset=".6" stop-color="#fae68a"></stop><stop offset=".63" stop-color="#faf399"></stop><stop offset=".66" stop-color="#f9e98c"></stop><stop offset=".77" stop-color="#f9c963"></stop><stop offset=".86" stop-color="#f9b244"></stop><stop offset=".94" stop-color="#f9a432"></stop><stop offset="1" stop-color="#f9a02c"></stop></linearGradient><linearGradient id="Gradiente_sem_nome_2" data-name="Gradiente sem nome 2" x1="40.39" y1="128.1" x2="70.52" y2="128.1" gradientTransform="translate(-2.63 -101.59)" gradientUnits="userSpaceOnUse"><stop offset="0" stop-color="#faaa42"></stop><stop offset=".03" stop-color="#faac46"></stop><stop offset=".12" stop-color="#fab04d"></stop><stop offset=".32" stop-color="#fbb250"></stop><stop offset=".33" stop-color="#fbb858"></stop><stop offset=".36" stop-color="#fbcb6e"></stop><stop offset=".39" stop-color="#fbe991"></stop><stop offset=".4" stop-color="#fbf49f"></stop><stop offset=".42" stop-color="#fae88f"></stop><stop offset=".47" stop-color="#fad06c"></stop><stop offset=".52" stop-color="#fabc51"></stop><stop offset=".57" stop-color="#faae3e"></stop><stop offset=".62" stop-color="#faa632"></stop><stop offset=".67" stop-color="#faa42f"></stop><stop offset=".69" stop-color="#faaa38"></stop><stop offset=".79" stop-color="#fac961"></stop><stop offset=".87" stop-color="#fae080"></stop><stop offset=".95" stop-color="#faee92"></stop><stop offset="1" stop-color="#faf399"></stop></linearGradient><linearGradient id="linear-gradient-5" x1="17.91" y1="52.77" x2="52.95" y2="52.77" xlink:href="#linear-gradient"></linearGradient><linearGradient id="linear-gradient-6" x1="17.91" y1="52.77" x2="52.95" y2="52.77" gradientUnits="userSpaceOnUse"><stop offset="0" stop-color="#be8734"></stop><stop offset=".13" stop-color="#fdf6af"></stop><stop offset=".34" stop-color="#b87c2b"></stop><stop offset=".42" stop-color="#c49140"></stop><stop offset=".58" stop-color="#fdf6af"></stop><stop offset=".7" stop-color="#be8734"></stop><stop offset=".83" stop-color="#eed386"></stop></linearGradient><linearGradient id="linear-gradient-7" x1="12.63" y1="31.21" x2="72.83" y2="31.21" xlink:href="#linear-gradient"></linearGradient></defs><g id="Camada_1-2" data-name="Camada 1"><g><g><g><rect class="cls-14" x="66.98" y="26.41" width="124.01" height=".44"></rect><circle class="cls-1" cx="192.77" cy="26.64" r="1.78"></circle></g><g><rect class="cls-13" x="66.98" y="26.41" width="124.01" height=".44"></rect><circle class="cls-15" cx="192.77" cy="26.64" r="1.78"></circle></g></g><path class="cls-3" d="m9.34,11.94c0,.31.26.57.57.57s.57-.26.57-.57-.26-.57-.57-.57-.57.26-.57.57Z"></path><path class="cls-8" d="m27.82,19.94c0,.31.26.57.57.57s.57-.26.57-.57-.26-.57-.57-.57-.57.26-.57.57Z"></path><path class="cls-5" d="m48.42,63.65c-14.53,7.17-32.13,1.2-39.3-13.33-7.17-14.53-1.2-32.13,13.33-39.3,14.53-7.17,32.13-1.2,39.3,13.33,7.17,14.53,1.2,32.13-13.33,39.3Z"></path><g><path class="cls-10" d="m59.43,63.21c-.64-.75-1.77-.83-2.52-.19-.69.6-.81,1.6-.31,2.34-1.76,1.32-3.64,2.49-5.62,3.47-17.37,8.57-38.47,1.41-47.04-15.95C-2.39,40.07-.27,24.74,9.09,14.12c.7.55,1.71.5,2.36-.14.7-.7.69-1.83,0-2.53-.7-.7-1.83-.69-2.53,0-.67.68-.69,1.75-.06,2.45C-.59,24.63-2.73,40.1,3.65,53.02c8.65,17.52,29.94,24.75,47.47,16.1,2.01-.99,3.91-2.17,5.68-3.51.65.68,1.73.74,2.45.12.75-.64.83-1.77.19-2.52Z"></path><path class="cls-7" d="m59.43,63.21c-.64-.75-1.77-.83-2.52-.19-.69.6-.81,1.6-.31,2.34-1.76,1.32-3.64,2.49-5.62,3.47-17.37,8.57-38.47,1.41-47.04-15.95C-2.39,40.07-.27,24.74,9.09,14.12c.7.55,1.71.5,2.36-.14.7-.7.69-1.83,0-2.53-.7-.7-1.83-.69-2.53,0-.67.68-.69,1.75-.06,2.45C-.59,24.63-2.73,40.1,3.65,53.02c8.65,17.52,29.94,24.75,47.47,16.1,2.01-.99,3.91-2.17,5.68-3.51.65.68,1.73.74,2.45.12.75-.64.83-1.77.19-2.52Z"></path></g><path class="cls-2" d="m17.99,20.17h1.21v5.7h7.24v-5.7h1.21v12.94h-1.21v-6.14h-7.24v6.14h-1.21v-12.94h0Zm13.2,0h1.21v12.94h-1.21v-12.94h0Zm-13.36,14.79h4c1.12,0,2.07.14,2.85.41.78.27,1.43.62,1.95,1.05.52.43.93.9,1.22,1.42s.52,1.01.66,1.49c.14.48.23.9.27,1.29.04.38.05.65.05.81s-.02.43-.05.81-.12.81-.27,1.29c-.14.48-.36.97-.66,1.49s-.71.99-1.22,1.42c-.52.43-1.17.78-1.95,1.05s-1.73.41-2.85.41h-4v-12.94h0Zm1.21,11.84h2.49c.85,0,1.65-.11,2.39-.32.74-.21,1.39-.54,1.94-.98.55-.44.98-1,1.3-1.67.32-.68.48-1.48.48-2.4s-.16-1.73-.48-2.4c-.32-.68-.75-1.23-1.3-1.67-.55-.44-1.19-.76-1.94-.98-.74-.21-1.54-.32-2.39-.32h-2.49v10.75h0Zm13.71-6.14h2.56c.63,0,1.15-.08,1.54-.24.4-.16.7-.35.92-.58.22-.23.37-.48.45-.75.08-.27.12-.51.12-.73s-.04-.46-.12-.73c-.08-.27-.23-.52-.45-.75-.22-.23-.53-.43-.92-.59-.4-.16-.91-.24-1.54-.24h-2.56v4.61h0Zm-1.21-5.7h3.4c.17,0,.4,0,.69.02.29.01.61.05.95.11.34.06.69.16,1.04.29.35.13.67.33.95.58.28.26.51.58.69.97.18.39.27.87.27,1.43,0,.62-.11,1.13-.32,1.54-.21.4-.48.73-.8.98-.32.25-.68.44-1.07.56-.39.12-.76.21-1.11.26l3.77,6.21h-1.37l-3.64-6.14h-2.25v6.14h-1.21v-12.94h0Zm14.8,0h1.24l5.45,12.94h-1.35l-1.41-3.44h-6.85l-1.46,3.44h-1.26l5.65-12.94h0Zm.57,1.32l-3.02,7.09h5.94l-2.92-7.09Z"></path><g><path class="cls-9" d="m67.68,26.3h-26.35c-.04-.34-.18-.67-.42-.95-.64-.75-1.77-.83-2.52-.19-.75.64-.83,1.77-.19,2.52.64.75,1.77.83,2.52.19.35-.3.55-.71.6-1.14h26.57c-.07-.14-.14-.29-.21-.43Z"></path><path class="cls-12" d="m67.68,26.3h-26.35c-.04-.34-.18-.67-.42-.95-.64-.75-1.77-.83-2.52-.19-.75.64-.83,1.77-.19,2.52.64.75,1.77.83,2.52.19.35-.3.55-.71.6-1.14h26.57c-.07-.14-.14-.29-.21-.43Z"></path></g><g><path class="cls-6" d="m17.91,50.68h1.41c.2,0,.4.02.58.06s.35.11.49.2.26.22.34.37c.08.16.13.35.13.58,0,.26-.05.48-.14.64-.09.16-.21.29-.37.38-.15.09-.33.15-.54.18-.2.03-.42.05-.64.05h-.53v1.73h-.75v-4.19h0Zm1.2,1.82c.11,0,.22,0,.33-.01.11,0,.22-.03.32-.07.1-.04.18-.1.24-.18.06-.08.09-.19.09-.33,0-.13-.03-.23-.08-.31-.06-.08-.13-.14-.21-.18-.09-.04-.18-.07-.29-.08-.11-.01-.21-.02-.31-.02h-.53v1.18h.45Zm9.7-1.82h2.77v.67h-2.03v1.03h1.92v.67h-1.92v1.14h2.14v.67h-2.88v-4.19h0Zm10.9,0h.75v3.51h1.78v.67h-2.53v-4.19h0Zm10.36,0h2.77v.67h-2.03v1.03h1.92v.67h-1.92v1.14h2.14v.67h-2.88v-4.19Z"></path><path class="cls-4" d="m17.91,50.68h1.41c.2,0,.4.02.58.06s.35.11.49.2.26.22.34.37c.08.16.13.35.13.58,0,.26-.05.48-.14.64-.09.16-.21.29-.37.38-.15.09-.33.15-.54.18-.2.03-.42.05-.64.05h-.53v1.73h-.75v-4.19h0Zm1.2,1.82c.11,0,.22,0,.33-.01.11,0,.22-.03.32-.07.1-.04.18-.1.24-.18.06-.08.09-.19.09-.33,0-.13-.03-.23-.08-.31-.06-.08-.13-.14-.21-.18-.09-.04-.18-.07-.29-.08-.11-.01-.21-.02-.31-.02h-.53v1.18h.45Zm9.7-1.82h2.77v.67h-2.03v1.03h1.92v.67h-1.92v1.14h2.14v.67h-2.88v-4.19h0Zm10.9,0h.75v3.51h1.78v.67h-2.53v-4.19h0Zm10.36,0h2.77v.67h-2.03v1.03h1.92v.67h-1.92v1.14h2.14v.67h-2.88v-4.19Z"></path></g><path class="cls-11" d="m12.63,7.81c1.96-1.52,4.09-2.85,6.34-3.95,18.46-9.11,40.89-1.5,50,16.96,3.38,6.85,4.57,14.45,3.46,21.97-1.09,7.35-4.3,14.14-9.27,19.63l-3.16-2.87c9.17-10.13,11.19-24.59,5.15-36.85C57.07,6.35,37.21-.39,20.86,7.68c-1.99.98-3.88,2.16-5.62,3.5l-2.61-3.38Z"></path></g></g></svg>